<?xml version="1.0" standalone="no"?><!DOCTYPE svg PUBLIC "-//W3C//DTD SVG 1.1//EN" "http://www.w3.org/Graphics/SVG/1.1/DTD/svg11.dtd"><svg t="1600268851000" class="icon" viewBox="0 0 1024 1024" version="1.1" xmlns="http://www.w3.org/2000/svg" p-id="3890" width="48" height="48" xmlns:xlink="http://www.w3.org/1999/xlink"><defs><style type="text/css"></style></defs><path d="M940.265 136.0025L888.8075 84.14a74.745 74.745 0 0 0-105.6375-0.3375l-344.925 342.81c-0.81 1.0125-1.1925 2.1375-2.025 3.15a19.8 19.8 0 0 0-7.9425 10.62l-63.945 191.295a21.7125 21.7125 0 0 0 26.2125 27.45l189.99-64.4625a20.8125 20.8125 0 0 0 11.025-7.65c0.7875-0.5625 1.6875-0.8325 2.475-1.4625L939.9275 241.55a74.7 74.7 0 0 0 0.3375-105.525z" fill="#0c97ee" p-id="3891"></path><path d="M940.265 136.0025L888.8075 84.14a74.475 74.475 0 0 0-105.6375-0.3375l-344.925 342.81c-0.81 1.0125-1.1925 2.1375-2.025 3.15a19.8 19.8 0 0 0-7.9425 10.62l-63.945 191.295a21.7125 21.7125 0 0 0 26.2575 27.45l189.99-64.4625a20.8125 20.8125 0 0 0 11.025-7.65c0.7875-0.5625 1.6875-0.8325 2.475-1.4625L939.995 241.55a74.8125 74.8125 0 0 0 0.27-105.525z m-370.6425 394.425l-79.2-76.365L752.2325 193.805l79.0875 76.3425-261.6975 260.28z m-100.62-34.5825l59.265 57.195-88.425 30.0375 29.16-87.2325zM900.2825 201.5675l-37.08 36.855-79.1325-76.275 38.7-38.475a18.3825 18.3825 0 0 1 26.1 0.0675l51.4575 51.9075a18.3375 18.3375 0 0 1-0.045 25.92z" fill="#0c97ee" p-id="3892"></path><path d="M877.5575 512.045c-15.525 0-28.125 12.6-28.125 28.125V849.5a56.25 56.25 0 0 1-56.25 56.25H174.5A56.25 56.25 0 0 1 118.25 849.5V230.8175a56.25 56.25 0 0 1 56.25-56.25h309.3525a28.125 28.125 0 0 0 0-56.25H174.5c-62.0325 0-112.5 50.4675-112.5 112.5v618.705C62 911.555 112.4675 962 174.5 962h618.6825c62.0325 0 112.5-50.445 112.5-112.5V540.1925a28.125 28.125 0 0 0-28.125-28.125z" fill="#0c97ee" p-id="3893"></path></svg>