<?xml version="1.0" standalone="no"?><!DOCTYPE svg PUBLIC "-//W3C//DTD SVG 1.1//EN" "http://www.w3.org/Graphics/SVG/1.1/DTD/svg11.dtd"><svg t="1600268838981" class="icon" viewBox="0 0 1024 1024" version="1.1" xmlns="http://www.w3.org/2000/svg" p-id="3675" width="48" height="48" xmlns:xlink="http://www.w3.org/1999/xlink"><defs><style type="text/css"></style></defs><path d="M428.4096919 902.52863458h-165.19823789c-11.89427344 0-146.0352419 5.94713672-146.03524278-5.28634425v-726.87224619c0-10.5726876-7.92951503-59.47136543 8.5903084-59.47136543h631.7180622c9.25110175 0 16.51982344-1.32158584 16.51982344 9.91189424V399.66519834c0 31.05726855 48.23788535 31.05726855 48.23788536 0V132.70484551c0-31.05726855-7.26872256-58.14977959-40.9691628-68.72246631-10.5726876-3.30396503-25.11013183-1.32158584-35.68281944-1.32158584H121.80176211C65.63436084 62.66079336 68.2775334 118.82819375 68.2775334 157.81497823V895.25991201c0 66.07929551 72.68722471 56.16740127 117.62114502 56.16740039h242.51101348c31.71806192 0 31.71806192-48.89867872 0-48.89867782z m0-1e-8" fill="#0c97ee" p-id="3676"></path><path d="M908.80616709 725.43612325c-1.32158584 103.08370078-83.92070479 185.02202636-187.00440469 187.00440556-103.08370078 1.32158584-185.68281972-86.56387646-187.00440556-187.00440556-1.32158584-103.08370078 86.56387646-185.02202636 187.00440556-187.00440557 103.08370078-1.32158584 185.68281972 85.90308398 187.00440469 187.00440557 0.66079336 31.05726855 48.89867872 31.05726855 48.23788535 0-1.9823792-111.67400917-79.29515391-208.14977988-188.98678388-230.61674005-109.03083662-22.46696016-222.02643164 38.32599112-264.31718028 140.74889854-43.61233448 105.0660791-3.96475752 223.34801748 87.8854623 286.78414131 92.51101318 64.09691631 220.7048458 45.59471367 298.67841387-32.3788544 43.61233448-43.61233448 66.07929551-103.74449326 66.74008799-164.53744541 0.66079336-31.71806192-47.57709287-31.05726855-48.23788535 1e-8z m0 0" fill="#0c97ee" p-id="3677"></path><path d="M620.70044082 658.69603526l168.50220205 168.50220292c22.46696016 22.46696016 56.82819375-11.89427344 34.36123359-34.36123359L655.06167441 624.33480166c-22.46696016-22.46696016-56.82819375 11.89427344-34.36123359 34.3612336z m1e-8 0" fill="#0c97ee" p-id="3678"></path><path d="M788.54185039 624.33480166l-168.50220293 168.50220293c-22.46696016 22.46696016 11.89427344 56.82819375 34.36123359 34.36123359l168.50220293-168.50220292c22.46696016-22.46696016-11.89427344-56.82819375-34.36123359-34.3612336zM208.36563857 307.15418516h485.02202695c31.05726855 0 31.05726855-48.23788535 0-48.23788535H208.36563857c-31.05726855-0.66079336-31.05726855 48.23788535 0 48.23788535z m0 213.43612324H478.62995557c31.05726855 0 31.05726855-48.23788535 0-48.23788535H208.36563857c-31.05726855 0-31.05726855 48.23788535 0 48.23788535z m0 198.89867813h159.91189453c31.05726855 0 31.05726855-48.23788535 0-48.23788536H208.36563857c-31.05726855-0.66079336-31.05726855 48.23788535 0 48.23788536z m0 0" fill="#0c97ee" p-id="3679"></path></svg>