<?xml version="1.0" standalone="no"?><!DOCTYPE svg PUBLIC "-//W3C//DTD SVG 1.1//EN" "http://www.w3.org/Graphics/SVG/1.1/DTD/svg11.dtd"><svg t="1600268860574" class="icon" viewBox="0 0 1024 1024" version="1.1" xmlns="http://www.w3.org/2000/svg" p-id="4104" width="48" height="48" xmlns:xlink="http://www.w3.org/1999/xlink"><defs><style type="text/css"></style></defs><path d="M467 671.99999961L337.0000001 541.99999971c-2.49999961-2.49999961-2.49999961-10.00000019 0-12.49999981l24.99999961-24.99999961c2.49999961-2.49999961 7.49999971-2.49999961 10.00000019 0l95.0000001 95.0000001 217.50000029-192.50000068c5.0000001-5.0000001 10.00000019-2.49999961 14.99999942 0l20.00000039 22.5c5.0000001 5.0000001 5.0000001 12.49999981 0 17.4999999l-252.5000001 225z" fill="#0c97ee" p-id="4105"></path><path d="M512 112.0000001c219.9999999 0 399.9999999 180 399.9999999 399.9999999s-180 399.9999999-399.9999999 399.9999999S112.0000001 731.9999999 112.0000001 512 292.0000001 112.0000001 512 112.0000001m0-50.0000001C264.5 62 62 264.5 62 512s202.5 450 450 450 450-202.5 450-450S759.5 62 512 62z" fill="#0c97ee" p-id="4106"></path></svg>