<?xml version="1.0" standalone="no"?><!DOCTYPE svg PUBLIC "-//W3C//DTD SVG 1.1//EN" "http://www.w3.org/Graphics/SVG/1.1/DTD/svg11.dtd"><svg t="1600268962603" class="icon" viewBox="0 0 1024 1024" version="1.1" xmlns="http://www.w3.org/2000/svg" p-id="4998" width="48" height="48" xmlns:xlink="http://www.w3.org/1999/xlink"><defs><style type="text/css"></style></defs><path d="M512 512m-68.26666667 0a68.26666667 68.26666667 0 1 0 136.53333334 0 68.26666667 68.26666667 0 1 0-136.53333334 0Z" fill="#0C97EE" p-id="4999"></path><path d="M961.19466667 489.2444448c-29.12711147-50.51733333-189.32622187-304.01422187-461.48266667-295.82222293-251.6764448 6.3715552-397.312 227.5555552-436.90666667 295.82222293a45.51111147 45.51111147 0 0 0 0 45.5111104c28.672 49.60711147 182.0444448 295.82222187 450.10488854 295.82222293h11.37777813c251.6764448-6.3715552 397.76711147-227.5555552 436.90666667-295.82222293a45.51111147 45.51111147 0 0 0 0-45.5111104z m-449.19466667 182.04444373a159.28888853 159.28888853 0 1 1 159.28888853-159.28888853 159.28888853 159.28888853 0 0 1-159.28888853 159.28888853z" fill="#0C97EE" p-id="5000"></path></svg>